<svg width="820" height="178" viewBox="0 0 820 178" fill="none"
    xmlns="http://www.w3.org/2000/svg">
    <path d="M94.6401 177.453C92.4884 177.587 90.4265 177.842 88.3879 177.717C83.7018 177.43 79.0177 177.044 74.3499 176.539C68.2738 175.882 62.4432 174.138 56.758 171.981C51.546 170.004 46.5646 167.494 41.8993 164.425C38.9029 162.454 35.9526 160.4 33.0986 158.23C31.2895 156.854 29.6915 155.2 28.0056 153.664C22.0843 148.267 17.1504 142.034 12.9983 135.227C10.8095 131.639 9.12774 127.736 7.291 123.94C4.87161 118.939 3.4475 113.597 2.1787 108.221C1.59356 105.742 1.14363 103.215 0.867928 100.683C0.498604 97.2926 0.285533 93.8799 0.141805 90.4708C0.0277938 87.7666 -0.124526 85.0266 0.173509 82.3508C0.674678 77.8511 1.38455 73.3634 2.25007 68.9181C3.80912 60.9107 6.80787 53.3899 10.6847 46.2479C13.0748 41.8448 15.6897 37.5443 19.0263 33.7562C21.7268 30.6904 24.2845 27.4649 27.248 24.6739C30.674 21.4474 34.301 18.3683 38.1617 15.6876C42.1561 12.914 46.4195 10.4622 50.7747 8.28938C56.8619 5.25243 63.2998 3.05871 70.0324 1.89414C73.3953 1.31246 76.7808 0.821122 80.175 0.474281C83.148 0.17049 86.1529 -0.0680072 89.1336 0.0176124C92.5656 0.116195 95.9873 0.592942 99.4118 0.922335C105.316 1.4902 110.999 3.01688 116.564 4.99356C124.585 7.84264 131.974 11.8624 138.85 16.899C143.768 20.5008 148.217 24.6003 152.317 29.0607C154.832 31.7958 157.008 34.851 159.238 37.836C162.545 42.2636 165.102 47.1384 167.387 52.1509C169.922 57.7131 171.938 63.4694 173.094 69.4778C173.818 73.2432 174.309 77.0582 174.773 80.867C175.066 83.2809 175.32 85.7319 175.23 88.1528C175.075 92.3409 174.697 96.5239 174.306 100.699C173.873 105.321 172.77 109.817 171.451 114.258C169.931 119.376 167.98 124.314 165.57 129.092C162.853 134.482 159.72 139.592 155.848 144.213C153.174 147.404 150.509 150.65 147.47 153.473C144.002 156.696 140.298 159.737 136.374 162.377C132.148 165.221 127.667 167.754 123.079 169.974C117.696 172.578 112.018 174.517 106.096 175.601C102.979 176.171 99.8589 176.728 96.7353 177.263C96.0816 177.374 95.406 177.358 94.6401 177.453ZM49.429 21.704C48.2929 22.4228 47.1043 23.0714 46.0303 23.8734C42.7713 26.3072 39.3056 28.5386 36.3883 31.3367C32.7712 34.8063 29.3702 38.5716 26.3298 42.5557C21.5328 48.8414 17.9293 55.8309 15.3834 63.356C13.848 67.894 12.5957 72.4817 12.0676 77.2502C11.737 80.2352 11.2308 83.2183 11.1641 86.2103C11.0905 89.5107 11.3274 92.8295 11.6205 96.1233C11.8606 98.8212 12.3199 101.505 12.7904 104.176C13.9086 110.523 15.9839 116.592 18.8207 122.342C20.7529 126.259 23.0497 130.03 25.5153 133.64C27.6593 136.778 30.0934 139.767 32.7218 142.514C35.3729 145.283 38.4033 147.694 41.2998 150.224C44.6305 153.134 48.4043 155.382 52.2938 157.449C57.1842 160.048 62.2591 162.178 67.6064 163.663C72.4333 165.004 77.3539 165.814 82.327 166.245C84.7783 166.457 87.2675 166.374 89.7318 166.258C92.6632 166.12 95.5891 165.836 98.512 165.558C102.676 165.162 106.667 163.979 110.63 162.722C115.724 161.106 120.576 158.94 125.202 156.247C130.012 153.449 134.489 150.194 138.57 146.434C143.654 141.751 148.091 136.508 151.795 130.644C155.07 125.457 157.709 119.98 159.746 114.204C161.196 110.094 162.287 105.891 162.847 101.565C163.282 98.2067 163.789 94.8478 163.998 91.4726C164.154 88.9582 163.95 86.4133 163.786 83.8897C163.638 81.5952 163.494 79.2789 163.055 77.0293C162.245 72.8805 161.437 68.7094 160.232 64.6653C158.722 59.5915 156.452 54.8212 153.827 50.1873C150.884 44.9917 147.347 40.2671 143.379 35.8682C139.642 31.7252 135.394 28.1208 130.817 24.8996C126.836 22.0972 122.654 19.6223 118.205 17.7086C113.212 15.5608 108.106 13.6038 102.676 12.7941C98.6807 12.1983 94.6806 11.5301 90.6578 11.2496C86.1367 10.9343 81.5944 11.2294 77.1055 11.9312C74.4763 12.3422 71.8318 12.7642 69.2675 13.4542C66.0943 14.3081 62.9112 15.2406 59.8898 16.5129C56.3635 17.9978 53.0072 19.8862 49.429 21.704Z" fill="url(#paint0_linear_2053_122)"/>
    <path d="M89.5953 81.262C87.927 83.0374 86.0355 84.5075 83.9209 85.7396C81.3873 87.2158 80.2992 89.7062 79.6983 92.4398C79.2177 94.6258 78.678 96.7924 77.2969 98.6083C75.5697 100.879 73.402 102.47 70.4431 102.723C69.7847 102.779 69.1142 102.819 68.4806 102.985C68.1938 103.061 67.8313 103.391 67.7632 103.669C67.2425 105.798 66.7007 107.927 66.3396 110.086C66.101 111.513 66.1267 112.986 66.0759 114.441C65.9742 117.352 66.783 120.113 67.4459 122.91C68.569 127.647 71.0216 131.696 73.7786 135.602C74.1845 136.177 74.6974 136.676 75.061 137.295C66.0739 133.109 60.3888 125.954 56.812 116.954C53.2262 107.932 53.1213 98.7034 55.6517 89.3551C55.5201 89.3269 55.3885 89.2986 55.2569 89.2704C54.4009 90.6475 53.58 92.0479 52.6809 93.3963C51.338 95.4103 49.7092 97.1254 47.1932 97.5593C46.1134 97.7455 44.9842 97.6285 43.8829 97.7168C43.5447 97.7439 43.0131 97.9203 42.9302 98.1554C42.3846 99.7019 41.7668 101.254 41.4912 102.859C40.7543 107.15 41.8513 111.165 43.8771 114.907C45.3393 117.607 47.1558 120.088 49.626 122.008C49.8683 122.196 50.0576 122.452 50.5149 122.933C47.9007 122.185 45.7406 121.278 43.7544 119.953C37.97 116.095 34.3539 110.687 32.6901 104.019C31.2474 98.2366 31.7871 92.5529 34.323 87.119C34.6945 86.3229 35.3237 85.6499 35.7312 84.8666C35.9868 84.3751 36.1866 83.7818 36.1778 83.238C36.1379 80.7566 36.6753 78.5477 38.2826 76.5265C39.7061 74.7363 41.599 73.982 43.6153 73.3332C46.4188 72.4311 49.3122 71.7549 52.0215 70.6309C54.0211 69.8012 55.7302 68.2965 57.6787 67.3097C58.9825 66.6494 60.4498 66.172 61.8951 65.9579C65.7213 65.3911 69.6201 65.2273 73.3215 63.9933C76.7312 62.8566 79.6468 60.8665 82.4082 58.5846C84.5838 56.7867 86.898 55.1517 89.1956 53.5072C92.8235 50.9106 96.034 47.8887 98.7504 44.3495C101.063 41.3366 103.515 38.415 105.619 35.2622C108.863 30.4032 111.713 25.3 114.059 19.9333C114.116 19.8027 114.178 19.6743 114.266 19.4824C124.638 23.5835 133.485 29.7843 141.098 37.8726C138.079 39.7402 135.068 41.5798 132.081 43.4567C128.175 45.9113 124.704 48.9078 121.633 52.3291C118.959 55.3081 116.875 58.7061 116.111 62.6875C115.651 65.0843 115.858 67.5967 117.242 69.6893C118.927 72.2357 120.701 74.7702 122.765 77.0069C125.676 80.1621 129.338 82.4042 133.175 84.3037C136.387 85.8941 138.624 88.3172 139.766 91.7067C140.695 94.463 140.571 97.1602 139.237 99.8059C138.942 100.391 138.904 101.187 138.976 101.861C139.7 108.685 137.886 114.814 133.886 120.306C130.997 124.273 127.257 127.249 122.787 129.303C120.108 130.533 117.335 131.411 114.382 131.628C112.475 131.768 110.564 131.857 108.655 131.969C108.631 131.846 108.606 131.723 108.581 131.601C109.743 131.133 110.94 130.739 112.059 130.186C115.302 128.582 118.312 126.702 120.669 123.822C122.742 121.288 124.278 118.539 124.952 115.368C125.276 113.849 125.253 112.25 125.319 110.685C125.356 109.805 124.622 109.924 124.058 109.889C120.711 109.684 118.321 107.985 117.041 104.967C115.65 101.688 116.106 98.4748 118.093 95.5128C118.738 94.5506 119.464 93.6422 120.26 92.6001C120.399 92.411 120.43 92.3309 120.462 92.2507C120.327 92.3088 120.192 92.3669 120.058 92.4249C118.879 93.225 117.7 94.025 116.444 94.8777C116.242 94.3617 116.009 93.6631 115.702 92.9985C114.805 91.0585 113.325 89.7221 111.457 88.6919C108.987 87.3301 106.601 85.8177 104.084 84.314C105.186 86.5428 106.774 88.1858 108.852 89.3149C109.579 89.7096 109.799 90.185 109.815 90.9513C109.846 92.4423 109.963 93.9313 110.04 95.4214C110.122 97.0325 110.368 98.6574 110.241 100.252C110.006 103.219 109.293 106.131 107.855 108.743C104.888 114.134 100.593 117.921 94.2684 119.045C94.7886 118.617 95.3374 118.22 95.8245 117.757C99.1027 114.644 101.227 110.97 101.719 106.368C101.939 104.309 101.892 102.372 101.251 100.4C101.04 99.7526 100.797 99.6004 100.207 99.6062C95.7632 99.6505 92.5685 95.619 92.9118 91.144C94.4406 90.968 95.9658 90.7925 97.4542 90.6212C95.6471 90.1079 93.871 89.6318 92.1157 89.0885C91.5413 88.9107 91.0407 88.5048 90.4724 88.2955C88.8727 87.7065 87.2554 87.1655 85.8625 86.6812C87.0058 85.1908 88.367 83.4162 89.8049 81.5323C89.8911 81.2941 89.9008 81.1652 89.9104 81.0362C89.8054 81.1114 89.7003 81.1867 89.5953 81.262ZM63.6722 87.7645C64.2952 86.723 64.9182 85.6814 65.5386 84.6442C64.1846 83.0862 61.5776 83.3642 60.7516 84.8967C57.3786 91.1541 56.3568 97.776 56.9424 104.799C57.2254 108.192 58.0518 111.401 59.1567 114.572C59.5199 115.614 60.0474 116.599 60.6149 117.868C60.7474 117.413 60.822 117.297 60.8043 117.197C60.3337 114.543 59.8454 111.892 59.3772 109.237C58.7748 105.822 59.1003 102.405 59.6933 99.0491C60.3819 95.1526 61.6093 91.3919 63.6722 87.7645ZM132.979 110.681C132.377 112.574 131.903 114.522 131.142 116.35C129.986 119.125 128.268 121.566 126.114 123.728C126.431 123.696 126.747 123.634 126.932 123.443C128.397 121.934 129.944 120.488 131.263 118.857C135.819 113.224 136.903 106.673 136.072 99.673C135.93 98.4778 135.089 97.9902 133.928 98.3036C132.328 98.7358 132.324 98.7367 132.75 100.39C133.612 103.732 133.532 107.094 132.979 110.681ZM61.9422 73.3336C59.115 74.8247 57.2935 77.1294 56.6645 80.2505C56.3364 81.8788 56.3176 83.5695 56.159 85.232C56.2694 85.237 56.3798 85.2419 56.4902 85.2469C56.8969 83.7588 57.1724 82.2187 57.7372 80.7934C58.9732 77.6746 61.0349 75.2676 64.3413 74.2233C66.6421 73.4967 69.0063 72.9719 71.3102 72.2543C74.7962 71.1685 77.9742 69.4637 80.7572 67.0927C81.8661 66.1479 82.8366 65.0406 83.87 64.0073C83.5537 63.8061 83.4227 63.7872 83.3453 63.8428C81.5888 65.105 79.9166 66.5061 78.0682 67.6135C75.2997 69.272 72.335 70.4943 69.147 71.2122C66.7692 71.7477 64.4636 72.6035 61.9422 73.3336ZM34.5288 99.8908C34.7678 101.179 34.9419 102.483 35.2637 103.75C35.5921 105.043 36.0656 106.299 36.4755 107.571C36.6346 107.556 36.7937 107.542 36.9528 107.527C34.9 99.6971 36.2174 92.6213 41.5889 86.2966C41.2438 86.0151 40.8917 85.7569 40.5731 85.4624C39.5847 84.549 39.1802 84.5436 38.394 85.6123C37.9195 86.2573 37.5515 86.9828 37.1573 87.6843C35.0638 91.4098 34.3693 95.4444 34.5288 99.8908Z" fill="url(#paint1_linear_2053_122)"/>
    <path d="M212.44 93.728C213.805 88.352 216.109 83.4027 219.352 78.88C222.68 74.272 226.563 70.304 231 66.976C235.437 63.5627 240.301 60.9173 245.592 59.04C250.883 57.0773 256.301 56.0107 261.848 55.84H282.456C280.237 58.2293 278.232 60.3627 276.44 62.24C275.672 63.0933 274.904 63.904 274.136 64.672C273.453 65.3547 272.813 66.0373 272.216 66.72C271.533 67.488 270.893 68.1707 270.296 68.768H259.544C255.875 68.768 252.291 69.408 248.792 70.688C245.379 71.8827 242.221 73.5893 239.32 75.808C236.419 77.9413 233.901 80.544 231.768 83.616C229.635 86.688 228.099 90.0587 227.16 93.728C226.136 97.6533 225.923 101.195 226.52 104.352C227.117 107.509 228.312 110.197 230.104 112.416C231.981 114.549 234.371 116.213 237.272 117.408C240.259 118.517 243.544 119.072 247.128 119.072H265.56C265.304 119.328 264.579 120.053 263.384 121.248C262.275 122.443 261.037 123.765 259.672 125.216C258.307 126.581 257.027 127.947 255.832 129.312C254.637 130.592 253.784 131.488 253.272 132H242.52C241.923 132 241.325 132 240.728 132C240.216 131.915 239.661 131.872 239.064 131.872C233.944 131.445 229.379 130.208 225.368 128.16C221.443 126.027 218.285 123.253 215.896 119.84C213.592 116.427 212.099 112.501 211.416 108.064C210.733 103.627 211.075 98.848 212.44 93.728ZM292.642 55.84H305.954L289.186 118.56H324.258C324.258 118.56 323.746 119.115 322.722 120.224C321.783 121.248 320.631 122.485 319.266 123.936C317.986 125.301 316.663 126.752 315.298 128.288C313.933 129.739 312.823 130.933 311.97 131.872H272.29L292.642 55.84ZM323.28 132C323.963 131.061 325.2 129.355 326.992 126.88C328.869 124.32 331.045 121.333 333.52 117.92C335.995 114.421 338.725 110.624 341.712 106.528C344.784 102.347 347.856 98.1227 350.928 93.856C354.085 89.5893 357.157 85.408 360.144 81.312C363.216 77.1307 365.989 73.3333 368.464 69.92C370.939 66.4213 373.072 63.4347 374.864 60.96C376.741 58.4853 378.021 56.7787 378.704 55.84H393.296C393.296 56.096 393.552 57.5893 394.064 60.32C394.576 62.9653 395.216 66.464 395.984 70.816C396.837 75.0827 397.776 79.9893 398.8 85.536C399.909 91.0827 401.019 96.928 402.128 103.072C403.323 109.131 404.517 115.275 405.712 121.504C406.907 127.733 408.016 133.621 409.04 139.168L400.592 171.168C398.885 162.293 397.435 154.869 396.24 148.896C395.131 142.923 394.149 137.675 393.296 133.152C392.528 128.629 391.76 124.491 390.992 120.736C390.309 116.981 389.541 112.928 388.688 108.576C387.92 104.139 386.981 99.0187 385.872 93.216C384.763 87.4133 383.397 80.2453 381.776 71.712C377.936 76.9173 374.779 81.2267 372.304 84.64C369.829 88.0533 367.824 90.784 366.288 92.832C364.837 94.88 363.728 96.416 362.96 97.44C362.277 98.464 361.723 99.232 361.296 99.744C360.955 100.256 360.656 100.683 360.4 101.024C360.229 101.28 359.931 101.707 359.504 102.304C359.077 102.816 358.437 103.627 357.584 104.736C356.816 105.845 355.621 107.509 354 109.728C352.464 111.947 350.373 114.848 347.728 118.432C345.168 122.016 341.883 126.539 337.872 132H323.28ZM416.157 14.24C417.864 23.3707 419.314 31.008 420.509 37.152C421.704 43.296 422.728 48.7147 423.581 53.408C424.52 58.016 425.373 62.24 426.141 66.08C426.909 69.92 427.72 74.1013 428.573 78.624C429.512 83.0613 430.536 88.224 431.645 94.112C432.84 100 434.29 107.296 435.997 116C438.898 111.904 441.416 108.448 443.549 105.632C445.682 102.731 447.474 100.256 448.925 98.208C448.84 97.7813 448.754 97.44 448.669 97.184C448.669 96.8427 448.626 96.4587 448.541 96.032C447.688 91.5947 446.834 87.2 445.981 82.848C445.128 78.4107 444.36 74.3573 443.677 70.688C442.994 67.0187 442.397 63.8613 441.885 61.216C441.373 58.5707 440.989 56.736 440.733 55.712H455.325C456.69 63.0507 457.928 69.5787 459.037 75.296C460.232 81.0133 461.256 86.2187 462.109 90.912C463.048 95.6053 463.901 99.9573 464.669 103.968C465.522 107.893 466.333 111.776 467.101 115.616C471.453 109.643 474.781 105.035 477.085 101.792C479.474 98.5493 481.309 96.0747 482.589 94.368C483.954 92.576 484.978 91.2107 485.661 90.272C486.429 89.248 487.325 88.0107 488.349 86.56C489.458 85.1093 490.952 83.104 492.829 80.544C494.706 77.8987 497.48 74.0587 501.149 69.024H476.061C475.805 67.8293 475.634 67.0613 475.549 66.72C475.549 66.3787 475.506 65.952 475.421 65.44C475.336 64.8427 475.165 63.8613 474.909 62.496C474.653 61.1307 474.226 58.8693 473.629 55.712H525.469C525.469 55.712 524.701 56.736 523.165 58.784C521.714 60.832 519.752 63.52 517.277 66.848C514.888 70.176 512.114 74.016 508.957 78.368C505.885 82.72 502.685 87.2 499.357 91.808C496.029 96.3307 492.701 100.853 489.373 105.376C486.13 109.813 483.144 113.867 480.413 117.536C477.768 121.205 475.506 124.32 473.629 126.88C471.837 129.355 470.685 130.933 470.173 131.616C470.344 132.555 470.557 133.536 470.813 134.56C471.069 135.584 471.282 136.608 471.453 137.632L462.493 171.168C462.408 170.827 462.109 169.333 461.597 166.688C461.17 164.128 460.616 160.971 459.933 157.216C459.25 153.547 458.482 149.493 457.629 145.056C456.861 140.619 456.093 136.352 455.325 132.256C454.557 128.16 453.874 124.491 453.277 121.248C452.68 117.92 452.253 115.531 451.997 114.08C448.413 118.944 445.384 123.04 442.909 126.368C440.52 129.611 439.24 131.445 439.069 131.872H424.349C424.178 131.019 423.794 129.099 423.197 126.112C422.6 123.04 421.874 119.243 421.021 114.72C420.168 110.197 419.186 105.12 418.077 99.488C416.968 93.7707 415.816 87.8827 414.621 81.824C413.426 75.7653 412.232 69.664 411.037 63.52C409.842 57.376 408.733 51.5307 407.709 45.984L416.157 14.24ZM537.863 96.672C533.767 95.9893 530.61 94.5813 528.391 92.448C526.258 90.2293 524.892 87.712 524.295 84.896C523.698 81.9947 523.826 78.9653 524.679 75.808C525.532 72.6507 526.94 69.7067 528.903 66.976C531.89 62.7093 535.388 59.808 539.399 58.272C543.495 56.6507 547.591 55.84 551.687 55.84H571.143C570.119 56.9493 569.095 58.0587 568.071 59.168C567.132 60.1067 566.151 61.1307 565.127 62.24C564.103 63.3493 563.122 64.3733 562.183 65.312C561.244 66.2507 560.476 67.0613 559.879 67.744C559.282 68.4267 558.983 68.8107 558.983 68.896H548.231C545.927 68.896 543.794 69.5787 541.831 70.944C539.868 72.224 538.546 73.9733 537.863 76.192C537.18 79.008 537.436 81.184 538.631 82.72C539.826 84.1707 541.575 84.896 543.879 84.896H545.543C549.212 84.896 552.37 85.4933 555.015 86.688C557.746 87.8827 559.922 89.5467 561.543 91.68C563.164 93.8133 564.146 96.3733 564.487 99.36C564.914 102.261 564.658 105.419 563.719 108.832C562.78 112.331 561.244 115.488 559.111 118.304C557.063 121.12 554.631 123.552 551.815 125.6C548.999 127.563 545.884 129.099 542.471 130.208C539.058 131.232 535.602 131.744 532.103 131.744H514.567L526.855 118.688H535.559C537.18 118.688 538.802 118.432 540.423 117.92C542.044 117.408 543.538 116.683 544.903 115.744C546.268 114.805 547.463 113.696 548.487 112.416C549.511 111.051 550.236 109.515 550.663 107.808C551.602 104.565 551.132 101.963 549.255 100C547.378 98.0373 544.775 97.056 541.447 97.056C540.764 97.056 540.124 97.0133 539.527 96.928C539.015 96.8427 538.46 96.7573 537.863 96.672ZM664.558 16.928C664.558 17.0987 664.814 18.5067 665.326 21.152C665.838 23.712 666.478 26.9973 667.246 31.008C668.014 34.9333 668.825 39.2853 669.678 44.064C670.617 48.8427 671.513 53.4933 672.366 58.016C673.646 64.416 674.926 71.2 676.206 78.368C677.571 85.536 678.937 92.7467 680.302 100L692.206 55.968H706.03C706.03 56.3093 706.03 56.6507 706.03 56.992C706.115 57.248 706.201 57.5893 706.286 58.016C707.566 64.5013 708.889 71.456 710.254 78.88C711.705 86.304 713.113 93.6853 714.478 101.024C715.843 108.277 717.123 115.232 718.318 121.888C719.598 128.544 720.707 134.347 721.646 139.296L713.07 171.296C711.534 163.36 710.254 156.576 709.23 150.944C708.206 145.397 707.267 140.491 706.414 136.224C705.646 132.043 704.963 128.245 704.366 124.832C703.769 121.333 703.129 117.792 702.446 114.208C701.763 110.539 700.995 106.571 700.142 102.304C699.289 97.952 698.307 92.7893 697.198 86.816L685.166 132H671.854C670.403 124.405 668.995 116.853 667.63 109.344C666.265 101.835 664.857 94.3253 663.406 86.816L651.374 132H638.062L658.158 56.608C657.817 54.9867 657.475 53.408 657.134 51.872C656.878 50.336 656.665 48.8 656.494 47.264L664.558 16.928ZM604.398 133.536C598.851 133.707 593.859 132.811 589.422 130.848C585.07 128.8 581.486 125.984 578.67 122.4C575.854 118.816 573.977 114.592 573.038 109.728C572.185 104.864 572.526 99.616 574.062 93.984C575.427 88.864 577.646 84 580.718 79.392C583.875 74.784 587.587 70.7307 591.854 67.232C596.121 63.648 600.814 60.7467 605.934 58.528C611.139 56.3093 616.473 54.9867 621.934 54.56C622.446 54.4747 622.958 54.432 623.47 54.432C623.982 54.432 624.494 54.432 625.006 54.432C629.614 54.432 633.753 55.1147 637.422 56.48C641.177 57.8453 644.419 59.7653 647.15 62.24L641.774 81.952C640.835 77.7707 638.787 74.272 635.63 71.456C632.558 68.64 628.462 67.0187 623.342 66.592H621.678C617.838 66.592 614.083 67.36 610.414 68.896C606.745 70.3467 603.331 72.352 600.174 74.912C597.102 77.472 594.414 80.416 592.11 83.744C589.891 86.9867 588.313 90.4 587.374 93.984C586.521 97.2267 586.222 100.384 586.478 103.456C586.819 106.528 587.715 109.301 589.166 111.776C590.617 114.165 592.579 116.213 595.054 117.92C597.614 119.541 600.643 120.565 604.142 120.992C604.227 121.077 604.398 121.12 604.654 121.12H604.91C610.371 121.547 615.833 120.395 621.294 117.664C626.841 114.848 631.534 110.88 635.374 105.76L630.126 125.728C626.03 128.203 621.849 130.123 617.582 131.488C613.315 132.768 608.921 133.451 604.398 133.536ZM787.134 87.712L774.846 100.896H751.422L746.558 118.688H785.598C785.598 118.773 785.555 118.859 785.47 118.944L773.31 132H729.79L741.566 87.712H787.134ZM750.142 55.84H802.366C800.403 57.888 798.611 59.808 796.99 61.6C795.539 63.136 794.131 64.6293 792.766 66.08C791.401 67.5307 790.419 68.5547 789.822 69.152H746.558L750.142 55.84Z" fill="url(#paint2_linear_2053_122)"/>
    <defs>
        <linearGradient id="paint0_linear_2053_122" x1="0" y1="88.8753" x2="175.249" y2="88.8753" gradientUnits="userSpaceOnUse">
            <stop stop-color="#8C00FF"/>
            <stop offset="1" stop-color="#008FD6"/>
        </linearGradient>
        <linearGradient id="paint1_linear_2053_122" x1="31.9033" y1="78.389" x2="141.098" y2="78.389" gradientUnits="userSpaceOnUse">
            <stop stop-color="#8C00FF"/>
            <stop offset="1" stop-color="#008FD6"/>
        </linearGradient>
        <linearGradient id="paint2_linear_2053_122" x1="820" y1="89" x2="199" y2="89" gradientUnits="userSpaceOnUse">
            <stop stop-color="#8C00FF"/>
            <stop offset="1" stop-color="#008FD6"/>
        </linearGradient>
    </defs>
</svg>
