<svg width="898" height="178" viewBox="0 0 898 178" fill="none"
    xmlns="http://www.w3.org/2000/svg">
    <path d="M94.6401 177.453C92.4884 177.587 90.4265 177.842 88.3879 177.717C83.7018 177.43 79.0177 177.044 74.3499 176.539C68.2738 175.882 62.4432 174.138 56.758 171.981C51.546 170.004 46.5646 167.494 41.8993 164.425C38.9029 162.454 35.9526 160.4 33.0986 158.23C31.2895 156.854 29.6915 155.2 28.0056 153.664C22.0843 148.267 17.1504 142.034 12.9983 135.227C10.8095 131.639 9.12774 127.736 7.291 123.94C4.87161 118.939 3.4475 113.597 2.1787 108.221C1.59356 105.742 1.14363 103.215 0.867928 100.683C0.498604 97.2926 0.285533 93.8799 0.141805 90.4708C0.0277938 87.7666 -0.124526 85.0266 0.173509 82.3508C0.674678 77.8511 1.38455 73.3634 2.25007 68.9181C3.80912 60.9107 6.80787 53.3899 10.6847 46.2479C13.0748 41.8448 15.6897 37.5443 19.0263 33.7562C21.7268 30.6904 24.2845 27.4649 27.248 24.6739C30.674 21.4474 34.301 18.3683 38.1617 15.6876C42.1561 12.914 46.4195 10.4622 50.7747 8.28938C56.8619 5.25243 63.2998 3.05871 70.0324 1.89414C73.3953 1.31246 76.7808 0.821122 80.175 0.474281C83.148 0.17049 86.1529 -0.0680072 89.1336 0.0176124C92.5656 0.116195 95.9873 0.592942 99.4118 0.922335C105.316 1.4902 110.999 3.01688 116.564 4.99356C124.585 7.84264 131.974 11.8624 138.85 16.899C143.768 20.5008 148.217 24.6003 152.317 29.0607C154.832 31.7958 157.008 34.851 159.238 37.836C162.545 42.2636 165.102 47.1384 167.387 52.1509C169.922 57.7131 171.938 63.4694 173.094 69.4778C173.818 73.2432 174.309 77.0582 174.773 80.867C175.066 83.2809 175.32 85.7319 175.23 88.1528C175.075 92.3409 174.697 96.5239 174.306 100.699C173.873 105.321 172.77 109.817 171.451 114.258C169.931 119.376 167.98 124.314 165.57 129.092C162.853 134.482 159.72 139.592 155.848 144.213C153.174 147.404 150.509 150.65 147.47 153.473C144.002 156.696 140.298 159.737 136.374 162.377C132.148 165.221 127.667 167.754 123.079 169.974C117.696 172.578 112.018 174.517 106.096 175.601C102.979 176.171 99.8589 176.728 96.7353 177.263C96.0816 177.374 95.406 177.358 94.6401 177.453ZM49.429 21.704C48.2929 22.4228 47.1043 23.0714 46.0303 23.8734C42.7713 26.3072 39.3056 28.5386 36.3883 31.3367C32.7712 34.8063 29.3702 38.5716 26.3298 42.5557C21.5328 48.8414 17.9293 55.8309 15.3834 63.356C13.848 67.894 12.5957 72.4817 12.0676 77.2502C11.737 80.2352 11.2308 83.2183 11.1641 86.2103C11.0905 89.5107 11.3274 92.8295 11.6205 96.1233C11.8606 98.8212 12.3199 101.505 12.7904 104.176C13.9086 110.523 15.9839 116.592 18.8207 122.342C20.7529 126.259 23.0497 130.03 25.5153 133.64C27.6593 136.778 30.0934 139.767 32.7218 142.514C35.3729 145.283 38.4033 147.694 41.2998 150.224C44.6305 153.134 48.4043 155.382 52.2938 157.449C57.1842 160.048 62.2591 162.178 67.6064 163.663C72.4333 165.004 77.3539 165.814 82.327 166.245C84.7783 166.457 87.2675 166.374 89.7318 166.258C92.6632 166.12 95.5891 165.836 98.512 165.558C102.676 165.162 106.667 163.979 110.63 162.722C115.724 161.106 120.576 158.94 125.202 156.247C130.012 153.449 134.489 150.194 138.57 146.434C143.654 141.751 148.091 136.508 151.795 130.644C155.07 125.457 157.709 119.98 159.746 114.204C161.196 110.094 162.287 105.891 162.847 101.565C163.282 98.2067 163.789 94.8478 163.998 91.4726C164.154 88.9582 163.95 86.4133 163.786 83.8897C163.638 81.5952 163.494 79.2789 163.055 77.0293C162.245 72.8805 161.437 68.7094 160.232 64.6653C158.722 59.5915 156.452 54.8212 153.827 50.1873C150.884 44.9917 147.347 40.2671 143.379 35.8682C139.642 31.7252 135.394 28.1208 130.817 24.8996C126.836 22.0972 122.654 19.6223 118.205 17.7087C113.212 15.5608 108.106 13.6038 102.676 12.7941C98.6807 12.1983 94.6806 11.5301 90.6578 11.2496C86.1367 10.9343 81.5944 11.2294 77.1055 11.9312C74.4763 12.3422 71.8318 12.7642 69.2675 13.4542C66.0943 14.3081 62.9112 15.2406 59.8898 16.5129C56.3635 17.9978 53.0072 19.8862 49.429 21.704Z" fill="url(#paint0_linear_2053_122)"/>
    <path d="M89.5953 81.262C87.927 83.0374 86.0355 84.5075 83.9209 85.7396C81.3873 87.2158 80.2992 89.7062 79.6983 92.4398C79.2177 94.6258 78.678 96.7924 77.2969 98.6083C75.5697 100.879 73.402 102.47 70.4431 102.723C69.7847 102.779 69.1142 102.819 68.4806 102.985C68.1938 103.061 67.8313 103.391 67.7632 103.669C67.2425 105.798 66.7007 107.927 66.3396 110.086C66.101 111.513 66.1267 112.986 66.0759 114.441C65.9742 117.352 66.783 120.113 67.4459 122.91C68.569 127.647 71.0216 131.696 73.7786 135.602C74.1845 136.177 74.6974 136.676 75.061 137.295C66.0739 133.109 60.3888 125.954 56.812 116.954C53.2262 107.932 53.1213 98.7034 55.6517 89.3551C55.5201 89.3269 55.3885 89.2986 55.2569 89.2704C54.4009 90.6475 53.58 92.0479 52.6809 93.3963C51.338 95.4103 49.7092 97.1254 47.1932 97.5593C46.1134 97.7455 44.9842 97.6285 43.8829 97.7168C43.5447 97.7439 43.0131 97.9203 42.9302 98.1554C42.3846 99.7019 41.7668 101.254 41.4912 102.859C40.7543 107.15 41.8513 111.165 43.8771 114.907C45.3393 117.607 47.1558 120.088 49.626 122.008C49.8683 122.196 50.0576 122.452 50.5149 122.933C47.9007 122.185 45.7406 121.278 43.7544 119.953C37.97 116.095 34.3539 110.687 32.6901 104.019C31.2474 98.2366 31.7871 92.5528 34.323 87.119C34.6945 86.3229 35.3237 85.6499 35.7312 84.8666C35.9868 84.3751 36.1866 83.7818 36.1778 83.238C36.1379 80.7566 36.6753 78.5477 38.2826 76.5265C39.7061 74.7363 41.599 73.982 43.6153 73.3332C46.4188 72.4311 49.3122 71.7549 52.0215 70.6309C54.0211 69.8012 55.7302 68.2965 57.6787 67.3097C58.9825 66.6494 60.4498 66.172 61.8951 65.9579C65.7213 65.3911 69.6201 65.2273 73.3215 63.9933C76.7312 62.8566 79.6468 60.8665 82.4082 58.5846C84.5838 56.7867 86.898 55.1517 89.1956 53.5072C92.8235 50.9106 96.034 47.8887 98.7504 44.3495C101.063 41.3366 103.515 38.415 105.619 35.2622C108.863 30.4032 111.713 25.3 114.059 19.9333C114.116 19.8027 114.178 19.6743 114.266 19.4824C124.638 23.5835 133.485 29.7843 141.098 37.8726C138.079 39.7402 135.068 41.5798 132.081 43.4567C128.175 45.9113 124.704 48.9078 121.633 52.3291C118.959 55.3081 116.875 58.7061 116.111 62.6875C115.651 65.0843 115.858 67.5967 117.242 69.6893C118.927 72.2357 120.701 74.7702 122.765 77.0069C125.676 80.1621 129.338 82.4042 133.175 84.3037C136.387 85.8941 138.624 88.3172 139.766 91.7067C140.695 94.463 140.571 97.1602 139.237 99.8059C138.942 100.391 138.904 101.187 138.976 101.861C139.7 108.685 137.886 114.814 133.886 120.306C130.997 124.273 127.257 127.249 122.787 129.303C120.108 130.533 117.335 131.411 114.382 131.628C112.475 131.768 110.564 131.857 108.655 131.969C108.631 131.846 108.606 131.723 108.581 131.601C109.743 131.133 110.94 130.739 112.059 130.186C115.302 128.582 118.312 126.702 120.669 123.822C122.742 121.288 124.278 118.539 124.952 115.368C125.276 113.849 125.253 112.25 125.319 110.685C125.356 109.805 124.622 109.924 124.058 109.889C120.711 109.684 118.321 107.985 117.041 104.967C115.65 101.688 116.106 98.4748 118.093 95.5128C118.738 94.5506 119.464 93.6422 120.26 92.6001C120.399 92.411 120.43 92.3309 120.462 92.2507C120.327 92.3088 120.192 92.3669 120.058 92.4249C118.879 93.225 117.7 94.025 116.444 94.8777C116.242 94.3617 116.009 93.6631 115.702 92.9985C114.805 91.0585 113.325 89.7221 111.457 88.6919C108.987 87.3301 106.601 85.8177 104.084 84.314C105.186 86.5428 106.774 88.1858 108.852 89.3149C109.579 89.7096 109.799 90.185 109.815 90.9513C109.846 92.4423 109.963 93.9313 110.04 95.4214C110.122 97.0325 110.368 98.6574 110.241 100.252C110.006 103.219 109.293 106.132 107.855 108.743C104.888 114.134 100.593 117.921 94.2684 119.045C94.7886 118.617 95.3374 118.22 95.8245 117.757C99.1027 114.644 101.227 110.97 101.719 106.368C101.939 104.309 101.892 102.372 101.251 100.4C101.04 99.7526 100.797 99.6004 100.207 99.6062C95.7632 99.6505 92.5685 95.619 92.9118 91.144C94.4406 90.968 95.9658 90.7925 97.4542 90.6212C95.6471 90.1079 93.871 89.6318 92.1157 89.0885C91.5413 88.9107 91.0407 88.5048 90.4724 88.2955C88.8727 87.7065 87.2554 87.1655 85.8625 86.6812C87.0058 85.1908 88.367 83.4162 89.8049 81.5323C89.8911 81.2941 89.9008 81.1652 89.9104 81.0362C89.8054 81.1115 89.7003 81.1867 89.5953 81.262ZM63.6722 87.7645C64.2952 86.723 64.9182 85.6814 65.5386 84.6442C64.1846 83.0862 61.5776 83.3642 60.7516 84.8967C57.3786 91.1541 56.3568 97.776 56.9424 104.799C57.2254 108.192 58.0518 111.401 59.1567 114.572C59.5199 115.614 60.0474 116.599 60.6149 117.868C60.7474 117.413 60.822 117.297 60.8043 117.197C60.3337 114.543 59.8454 111.892 59.3772 109.237C58.7748 105.822 59.1003 102.405 59.6933 99.0491C60.3819 95.1526 61.6093 91.3919 63.6722 87.7645ZM132.979 110.681C132.377 112.574 131.903 114.522 131.142 116.35C129.986 119.125 128.268 121.566 126.114 123.728C126.431 123.696 126.747 123.634 126.932 123.443C128.397 121.934 129.944 120.488 131.263 118.857C135.819 113.224 136.903 106.673 136.072 99.673C135.93 98.4778 135.089 97.9902 133.928 98.3036C132.328 98.7358 132.324 98.7367 132.75 100.39C133.612 103.732 133.532 107.094 132.979 110.681ZM61.9422 73.3336C59.115 74.8247 57.2935 77.1294 56.6645 80.2505C56.3364 81.8788 56.3176 83.5695 56.159 85.232C56.2694 85.237 56.3798 85.2419 56.4902 85.2469C56.8969 83.7588 57.1724 82.2187 57.7372 80.7934C58.9732 77.6746 61.0349 75.2676 64.3413 74.2233C66.6421 73.4967 69.0063 72.9719 71.3102 72.2543C74.7962 71.1685 77.9742 69.4637 80.7572 67.0927C81.8661 66.1479 82.8366 65.0406 83.87 64.0073C83.5537 63.8061 83.4227 63.7872 83.3453 63.8428C81.5888 65.105 79.9166 66.5061 78.0682 67.6135C75.2997 69.272 72.335 70.4943 69.147 71.2122C66.7692 71.7477 64.4636 72.6035 61.9422 73.3336ZM34.5288 99.8908C34.7678 101.179 34.9419 102.483 35.2637 103.75C35.5921 105.043 36.0656 106.299 36.4755 107.571C36.6346 107.556 36.7937 107.542 36.9528 107.527C34.9 99.6971 36.2174 92.6213 41.5889 86.2966C41.2438 86.0151 40.8917 85.7569 40.5731 85.4624C39.5847 84.549 39.1802 84.5436 38.394 85.6123C37.9195 86.2573 37.5515 86.9828 37.1573 87.6843C35.0638 91.4098 34.3693 95.4444 34.5288 99.8908Z" fill="url(#paint1_linear_2053_122)"/>
    <path d="M246.44 93.728C247.805 88.352 250.109 83.4027 253.352 78.88C256.68 74.272 260.563 70.304 265 66.976C269.437 63.5627 274.301 60.9173 279.592 59.04C284.883 57.0773 290.301 56.0107 295.848 55.84H316.456C314.237 58.2293 312.232 60.3627 310.44 62.24C309.672 63.0933 308.904 63.904 308.136 64.672C307.453 65.3547 306.813 66.0373 306.216 66.72C305.533 67.488 304.893 68.1707 304.296 68.768H293.544C289.875 68.768 286.291 69.408 282.792 70.688C279.379 71.8827 276.221 73.5893 273.32 75.808C270.419 77.9413 267.901 80.544 265.768 83.616C263.635 86.688 262.099 90.0587 261.16 93.728C260.136 97.6533 259.923 101.195 260.52 104.352C261.117 107.509 262.312 110.197 264.104 112.416C265.981 114.549 268.371 116.213 271.272 117.408C274.259 118.517 277.544 119.072 281.128 119.072H299.56C299.304 119.328 298.579 120.053 297.384 121.248C296.275 122.443 295.037 123.765 293.672 125.216C292.307 126.581 291.027 127.947 289.832 129.312C288.637 130.592 287.784 131.488 287.272 132H276.52C275.923 132 275.325 132 274.728 132C274.216 131.915 273.661 131.872 273.064 131.872C267.944 131.445 263.379 130.208 259.368 128.16C255.443 126.027 252.285 123.253 249.896 119.84C247.592 116.427 246.099 112.501 245.416 108.064C244.733 103.627 245.075 98.848 246.44 93.728ZM326.642 55.84H339.954L323.186 118.56H358.258C358.258 118.56 357.746 119.115 356.722 120.224C355.783 121.248 354.631 122.485 353.266 123.936C351.986 125.301 350.663 126.752 349.298 128.288C347.933 129.739 346.823 130.933 345.97 131.872H306.29L326.642 55.84ZM357.28 132C357.963 131.061 359.2 129.355 360.992 126.88C362.869 124.32 365.045 121.333 367.52 117.92C369.995 114.421 372.725 110.624 375.712 106.528C378.784 102.347 381.856 98.1227 384.928 93.856C388.085 89.5893 391.157 85.408 394.144 81.312C397.216 77.1307 399.989 73.3333 402.464 69.92C404.939 66.4213 407.072 63.4347 408.864 60.96C410.741 58.4853 412.021 56.7787 412.704 55.84H427.296C427.296 56.096 427.552 57.5893 428.064 60.32C428.576 62.9653 429.216 66.464 429.984 70.816C430.837 75.0827 431.776 79.9893 432.8 85.536C433.909 91.0827 435.019 96.928 436.128 103.072C437.323 109.131 438.517 115.275 439.712 121.504C440.907 127.733 442.016 133.621 443.04 139.168L434.592 171.168C432.885 162.293 431.435 154.869 430.24 148.896C429.131 142.923 428.149 137.675 427.296 133.152C426.528 128.629 425.76 124.491 424.992 120.736C424.309 116.981 423.541 112.928 422.688 108.576C421.92 104.139 420.981 99.0187 419.872 93.216C418.763 87.4133 417.397 80.2453 415.776 71.712C411.936 76.9173 408.779 81.2267 406.304 84.64C403.829 88.0533 401.824 90.784 400.288 92.832C398.837 94.88 397.728 96.416 396.96 97.44C396.277 98.464 395.723 99.232 395.296 99.744C394.955 100.256 394.656 100.683 394.4 101.024C394.229 101.28 393.931 101.707 393.504 102.304C393.077 102.816 392.437 103.627 391.584 104.736C390.816 105.845 389.621 107.509 388 109.728C386.464 111.947 384.373 114.848 381.728 118.432C379.168 122.016 375.883 126.539 371.872 132H357.28ZM450.699 16.8C451.979 23.6267 453.088 29.6 454.027 34.72C455.051 39.7547 455.904 44.2347 456.587 48.16C457.355 52 458.038 55.456 458.635 58.528C459.232 61.6 459.787 64.544 460.299 67.36C460.896 70.176 461.494 73.0773 462.091 76.064C462.688 79.0507 463.328 82.4213 464.011 86.176C464.779 89.9307 465.632 94.24 466.571 99.104C467.51 103.883 468.619 109.515 469.899 116C472.886 111.989 475.403 108.533 477.451 105.632C479.584 102.731 481.376 100.256 482.827 98.208C481.888 93.6 480.992 88.992 480.139 84.384C479.286 79.776 478.475 75.552 477.707 71.712C476.939 67.7867 476.256 64.416 475.659 61.6C475.147 58.784 474.806 56.864 474.635 55.84H489.355C490.72 63.1787 491.787 68.9387 492.555 73.12C493.408 77.216 494.006 80.3307 494.347 82.464C494.774 84.512 495.03 85.8347 495.115 86.432C495.2 86.944 495.243 87.328 495.243 87.584C495.328 87.7547 495.414 88.096 495.499 88.608C495.584 89.0347 495.798 90.144 496.139 91.936C496.566 93.728 497.12 96.5013 497.803 100.256C498.571 103.925 499.595 109.173 500.875 116C505.056 110.197 508.427 105.547 510.987 102.048C513.632 98.464 515.68 95.6907 517.131 93.728C518.667 91.68 519.734 90.2293 520.331 89.376C521.014 88.4373 521.526 87.7547 521.867 87.328C522.208 86.816 522.55 86.3467 522.891 85.92C523.232 85.408 523.787 84.5973 524.555 83.488C525.408 82.3787 526.646 80.7147 528.267 78.496C529.888 76.2773 532.15 73.1627 535.051 69.152H509.963C509.707 67.9573 509.536 67.1893 509.451 66.848C509.451 66.5067 509.366 66.08 509.195 65.568C509.11 64.9707 508.939 63.9893 508.683 62.624C508.512 61.2587 508.128 58.9973 507.531 55.84H559.371C549.302 69.664 540.299 82.0373 532.363 92.96C528.95 97.6533 525.579 102.261 522.251 106.784C518.923 111.307 515.936 115.403 513.291 119.072C510.731 122.656 508.598 125.643 506.891 128.032C505.184 130.336 504.203 131.616 503.947 131.872H503.691L505.099 139.552L496.651 171.168C496.054 168.181 495.627 166.048 495.371 164.768C495.115 163.488 494.902 162.379 494.731 161.44C494.56 160.501 494.347 159.349 494.091 157.984C493.835 156.704 493.408 154.443 492.811 151.2C492.214 147.957 491.36 143.435 490.251 137.632C489.142 131.829 487.691 123.979 485.899 114.08C482.315 119.029 479.328 123.168 476.939 126.496C474.55 129.739 473.227 131.531 472.971 131.872H458.251C458.08 131.019 457.696 129.141 457.099 126.24C456.587 123.253 455.904 119.584 455.051 115.232C454.198 110.88 453.216 105.973 452.107 100.512C451.083 95.0507 449.974 89.376 448.779 83.488C447.67 77.5147 446.518 71.5413 445.323 65.568C444.214 59.5947 443.147 53.92 442.123 48.544L450.699 16.8ZM518.667 131.872C523.275 125.557 527.627 119.584 531.723 113.952C533.515 111.563 535.307 109.131 537.099 106.656C538.891 104.096 540.64 101.664 542.347 99.36C544.054 97.056 545.632 94.9227 547.083 92.96C548.534 90.912 549.771 89.1627 550.795 87.712H601.227L588.811 100.896H555.787C553.398 104.139 551.094 107.296 548.875 110.368C546.742 113.355 544.694 116.128 542.731 118.688H599.691C599.606 118.773 599.563 118.859 599.563 118.944L587.403 131.872H518.667ZM564.363 69.152C566.496 66.2507 568.416 63.6053 570.123 61.216C571.83 58.8267 573.11 57.0347 573.963 55.84H616.459C614.496 57.888 612.704 59.808 611.083 61.6C609.632 63.136 608.224 64.6293 606.859 66.08C605.494 67.5307 604.512 68.5547 603.915 69.152H564.363ZM629.113 96.672C625.017 95.9893 621.86 94.5813 619.641 92.448C617.508 90.2293 616.142 87.712 615.545 84.896C614.948 81.9947 615.076 78.9653 615.929 75.808C616.782 72.6507 618.19 69.7067 620.153 66.976C623.14 62.7093 626.638 59.808 630.649 58.272C634.745 56.6507 638.841 55.84 642.937 55.84H662.393C661.369 56.9493 660.345 58.0587 659.321 59.168C658.382 60.1067 657.401 61.1307 656.377 62.24C655.353 63.3493 654.372 64.3733 653.433 65.312C652.494 66.2507 651.726 67.0613 651.129 67.744C650.532 68.4267 650.233 68.8107 650.233 68.896H639.481C637.177 68.896 635.044 69.5787 633.081 70.944C631.118 72.224 629.796 73.9733 629.113 76.192C628.43 79.008 628.686 81.184 629.881 82.72C631.076 84.1707 632.825 84.896 635.129 84.896H636.793C640.462 84.896 643.62 85.4933 646.265 86.688C648.996 87.8827 651.172 89.5467 652.793 91.68C654.414 93.8133 655.396 96.3733 655.737 99.36C656.164 102.261 655.908 105.419 654.969 108.832C654.03 112.331 652.494 115.488 650.361 118.304C648.313 121.12 645.881 123.552 643.065 125.6C640.249 127.563 637.134 129.099 633.721 130.208C630.308 131.232 626.852 131.744 623.353 131.744H605.817L618.105 118.688H626.809C628.43 118.688 630.052 118.432 631.673 117.92C633.294 117.408 634.788 116.683 636.153 115.744C637.518 114.805 638.713 113.696 639.737 112.416C640.761 111.051 641.486 109.515 641.913 107.808C642.852 104.565 642.382 101.963 640.505 100C638.628 98.0373 636.025 97.056 632.697 97.056C632.014 97.056 631.374 97.0133 630.777 96.928C630.265 96.8427 629.71 96.7573 629.113 96.672ZM755.808 16.928C755.808 17.0987 756.064 18.5067 756.576 21.152C757.088 23.712 757.728 26.9973 758.496 31.008C759.264 34.9333 760.075 39.2853 760.928 44.064C761.867 48.8427 762.763 53.4933 763.616 58.016C764.896 64.416 766.176 71.2 767.456 78.368C768.821 85.536 770.187 92.7467 771.552 100L783.456 55.968H797.28C797.28 56.3093 797.28 56.6507 797.28 56.992C797.365 57.248 797.451 57.5893 797.536 58.016C798.816 64.5013 800.139 71.456 801.504 78.88C802.955 86.304 804.363 93.6853 805.728 101.024C807.093 108.277 808.373 115.232 809.568 121.888C810.848 128.544 811.957 134.347 812.896 139.296L804.32 171.296C802.784 163.36 801.504 156.576 800.48 150.944C799.456 145.397 798.517 140.491 797.664 136.224C796.896 132.043 796.213 128.245 795.616 124.832C795.019 121.333 794.379 117.792 793.696 114.208C793.013 110.539 792.245 106.571 791.392 102.304C790.539 97.952 789.557 92.7893 788.448 86.816L776.416 132H763.104C761.653 124.405 760.245 116.853 758.88 109.344C757.515 101.835 756.107 94.3253 754.656 86.816L742.624 132H729.312L749.408 56.608C749.067 54.9867 748.725 53.408 748.384 51.872C748.128 50.336 747.915 48.8 747.744 47.264L755.808 16.928ZM695.648 133.536C690.101 133.707 685.109 132.811 680.672 130.848C676.32 128.8 672.736 125.984 669.92 122.4C667.104 118.816 665.227 114.592 664.288 109.728C663.435 104.864 663.776 99.616 665.312 93.984C666.677 88.864 668.896 84 671.968 79.392C675.125 74.784 678.837 70.7307 683.104 67.232C687.371 63.648 692.064 60.7467 697.184 58.528C702.389 56.3093 707.723 54.9867 713.184 54.56C713.696 54.4747 714.208 54.432 714.72 54.432C715.232 54.432 715.744 54.432 716.256 54.432C720.864 54.432 725.003 55.1147 728.672 56.48C732.427 57.8453 735.669 59.7653 738.4 62.24L733.024 81.952C732.085 77.7707 730.037 74.272 726.88 71.456C723.808 68.64 719.712 67.0187 714.592 66.592H712.928C709.088 66.592 705.333 67.36 701.664 68.896C697.995 70.3467 694.581 72.352 691.424 74.912C688.352 77.472 685.664 80.416 683.36 83.744C681.141 86.9867 679.563 90.4 678.624 93.984C677.771 97.2267 677.472 100.384 677.728 103.456C678.069 106.528 678.965 109.301 680.416 111.776C681.867 114.165 683.829 116.213 686.304 117.92C688.864 119.541 691.893 120.565 695.392 120.992C695.477 121.077 695.648 121.12 695.904 121.12H696.16C701.621 121.547 707.083 120.395 712.544 117.664C718.091 114.848 722.784 110.88 726.624 105.76L721.376 125.728C717.28 128.203 713.099 130.123 708.832 131.488C704.565 132.768 700.171 133.451 695.648 133.536ZM878.384 87.712L866.096 100.896H842.672L837.808 118.688H876.848C876.848 118.773 876.805 118.859 876.72 118.944L864.56 132H821.04L832.816 87.712H878.384ZM841.392 55.84H893.616C891.653 57.888 889.861 59.808 888.24 61.6C886.789 63.136 885.381 64.6293 884.016 66.08C882.651 67.5307 881.669 68.5547 881.072 69.152H837.808L841.392 55.84Z" fill="url(#paint2_linear_2053_122)"/>
    <defs>
        <linearGradient id="paint0_linear_2053_122" x1="0" y1="88.8753" x2="175.249" y2="88.8753" gradientUnits="userSpaceOnUse">
            <stop stop-color="#8C00FF"/>
            <stop offset="1" stop-color="#008FD6"/>
        </linearGradient>
        <linearGradient id="paint1_linear_2053_122" x1="31.9033" y1="78.389" x2="141.098" y2="78.389" gradientUnits="userSpaceOnUse">
            <stop stop-color="#8C00FF"/>
            <stop offset="1" stop-color="#008FD6"/>
        </linearGradient>
        <linearGradient id="paint2_linear_2053_122" x1="898" y1="89" x2="233" y2="89" gradientUnits="userSpaceOnUse">
            <stop stop-color="#8C00FF"/>
            <stop offset="1" stop-color="#008FD6"/>
        </linearGradient>
    </defs>
</svg>
