<svg width="1225" height="221" viewBox="0 0 1225 221" fill="none" xmlns="http://www.w3.org/2000/svg">
<path d="M0.00102881 157.306C-0.0852084 180.737 5.25066 202.804 15.7641 221C13.3456 205.679 15.4083 192.386 20.7121 181.136C16.9294 149.714 22.3647 111.472 37.1989 84.2328C71.7852 20.7236 145.217 4.38026 183.739 46.8423C197.421 48.0223 210.445 51.4343 222.173 57.093C183.829 -28.2288 70.9323 -14.6511 21.5443 76.0365C7.16201 102.445 0.099047 130.752 0.00102881 157.306ZM29.8155 153.743C30.0078 175.014 36.2989 197.095 50.9177 218.122C31.4093 157.958 125.902 114.297 160.451 148.933C155.548 108.579 113.414 99.2984 81.465 112.418C115.741 87.5692 155.507 85.5712 175.037 95.122C166.781 80.0926 130.227 61.0071 96.6013 70.1371C117.887 54.082 143.388 48.6014 174.487 53.39C122.159 -0.67577 29.0611 70.2974 29.8155 153.743ZM127.894 100.744C152.032 104.846 171.817 125.244 172.278 151.84C179.115 156.385 185.042 161.865 189.7 168.287C192.801 136.216 173.551 110.043 147.219 100.051C140.908 99.7342 134.434 99.9561 127.894 100.744ZM136.499 62.6586C161.539 63.9063 183.336 79.0259 193.708 102.544C204.669 106.471 214.607 112.026 223 119.142C218.78 96.8515 207.284 78.5497 191.52 66.2394C174.977 59.9856 155.833 58.8004 136.499 62.6586Z" fill="url(#paint0_linear_2050_31)"/>
<path d="M337.848 79.592C345.784 84.0293 353.635 88.5093 361.4 93.032C369.165 97.5547 376.931 102.035 384.696 106.472C382.392 108.008 380.131 109.416 377.912 110.696C375.693 111.891 373.347 113.171 370.872 114.536C365.496 111.464 360.035 108.349 354.488 105.192C349.027 101.949 343.608 98.792 338.232 95.72C332.6 98.792 327.011 101.949 321.464 105.192C316.003 108.435 310.456 111.677 304.824 114.92V152.936C306.189 153.704 307.597 154.472 309.048 155.24C310.499 156.008 311.907 156.776 313.272 157.544C317.368 159.848 321.464 162.28 325.56 164.84C329.656 167.4 333.752 169.832 337.848 172.136C343.48 168.893 349.027 165.693 354.488 162.536C360.035 159.379 365.496 156.179 370.872 152.936L384.696 161C376.931 165.608 369.165 170.131 361.4 174.568C353.72 179.091 345.997 183.656 338.232 188.264C330.125 183.656 322.189 179.091 314.424 174.568C306.744 170.131 298.936 165.608 291 161V132.2V106.856C298.765 102.248 306.573 97.7253 314.424 93.288C322.275 88.7653 330.083 84.2 337.848 79.592ZM396.125 0.231995C398.429 1.59733 400.733 2.92 403.037 4.2C405.341 5.39466 407.645 6.75999 409.949 8.29599V154.6L396.125 162.664V9.83199V0.231995ZM472.098 79.592C480.034 84.2 487.885 88.7653 495.65 93.288C503.501 97.7253 511.394 102.248 519.33 106.856C518.903 124.605 518.903 142.525 519.33 160.616C518.903 160.616 518.562 160.531 518.306 160.36C518.135 160.189 517.837 160.019 517.41 159.848C515.447 158.653 513.442 157.501 511.394 156.392C509.346 155.283 507.255 154.131 505.122 152.936V119.528C505.122 118.931 505.165 118.163 505.25 117.224C505.335 116.285 505.293 115.517 505.122 114.92C505.122 114.749 504.951 114.536 504.61 114.28C504.269 114.024 503.885 113.811 503.458 113.64C503.031 113.384 502.605 113.171 502.178 113C501.751 112.829 501.453 112.701 501.282 112.616C496.418 109.715 491.554 106.899 486.69 104.168C481.826 101.437 476.962 98.6213 472.098 95.72C466.722 98.792 461.261 101.949 455.714 105.192C450.253 108.435 444.706 111.677 439.074 114.92V152.936C444.109 156.008 449.186 158.995 454.306 161.896C459.511 164.883 464.802 167.912 470.178 170.984C470.349 171.155 470.647 171.368 471.074 171.624C471.586 171.965 471.927 172.136 472.098 172.136C472.269 172.136 472.567 171.965 472.994 171.624C473.506 171.368 473.975 171.155 474.402 170.984C477.303 169.277 480.077 167.613 482.722 165.992C485.453 164.456 488.183 162.92 490.914 161.384C493.218 162.579 495.565 163.859 497.954 165.224C500.343 166.675 502.605 168.083 504.738 169.448C499.362 172.52 493.901 175.635 488.354 178.792C482.893 182.035 477.474 185.192 472.098 188.264C464.162 183.656 456.311 179.091 448.546 174.568C440.781 170.131 433.015 165.608 425.25 161V106.856C433.015 102.419 440.781 97.9387 448.546 93.416C456.311 88.808 464.162 84.2 472.098 79.592ZM519.33 161C518.903 166.547 518.903 171.923 519.33 177.128C514.466 174.653 509.73 172.008 505.122 169.192C500.514 166.461 495.906 163.731 491.298 161C493.602 159.635 495.906 158.355 498.21 157.16C500.514 155.965 502.818 154.685 505.122 153.32C507.426 154.515 509.73 155.795 512.034 157.16C514.423 158.525 516.855 159.805 519.33 161ZM541.324 116.968V154.6C546.956 157.843 552.503 161.085 557.964 164.328C563.511 167.571 569.1 170.728 574.732 173.8C580.108 170.728 585.527 167.571 590.988 164.328C596.535 161.171 602.124 158.056 607.756 154.984C613.132 158.056 618.551 161.171 624.012 164.328C629.559 167.571 635.02 170.728 640.396 173.8C646.028 170.728 651.575 167.571 657.036 164.328C662.583 161.171 668.172 158.056 673.804 154.984V121.576C673.804 120.808 673.761 119.955 673.676 119.016C673.591 118.077 673.633 117.395 673.804 116.968C673.804 116.541 674.231 116.157 675.084 115.816C675.937 115.475 676.663 115.091 677.26 114.664C678.967 113.725 680.631 112.744 682.252 111.72C683.873 110.611 685.665 109.672 687.628 108.904V162.664C679.692 167.272 671.841 171.837 664.076 176.36C656.311 180.968 648.545 185.491 640.78 189.928C635.148 186.856 629.559 183.699 624.012 180.456C618.551 177.299 613.132 174.184 607.756 171.112C602.124 174.184 596.62 177.299 591.244 180.456C585.868 183.699 580.364 186.856 574.732 189.928C566.796 185.491 558.903 180.968 551.052 176.36C543.287 171.837 535.436 167.272 527.5 162.664V108.904C529.804 110.099 532.151 111.379 534.54 112.744C536.929 114.024 539.191 115.432 541.324 116.968ZM746.223 81.256C752.026 84.4987 757.828 87.8267 763.631 91.24C769.519 94.6533 775.364 98.1093 781.167 101.608C783.13 102.803 785.092 103.912 787.055 104.936C789.103 105.96 790.98 107.155 792.687 108.52C790.383 109.715 788.079 110.952 785.775 112.232C783.556 113.512 781.38 114.835 779.247 116.2C773.615 113.128 768.026 110.013 762.479 106.856C757.018 103.613 751.599 100.456 746.223 97.384C740.591 100.456 735.044 103.613 729.583 106.856C724.207 110.013 718.618 113.128 712.815 116.2C713.583 116.797 714.394 117.352 715.247 117.864C716.186 118.376 717.039 118.845 717.807 119.272C723.61 122.771 729.412 126.184 735.215 129.512C741.103 132.755 746.948 136.125 752.751 139.624C757.786 142.525 762.778 145.384 767.727 148.2C772.762 150.931 777.882 153.832 783.087 156.904C784.623 157.843 786.202 158.824 787.823 159.848C789.53 160.787 791.151 161.725 792.687 162.664C784.922 167.101 777.156 171.581 769.391 176.104C761.711 180.627 753.988 185.107 746.223 189.544C738.287 185.107 730.479 180.627 722.799 176.104C715.119 171.581 707.311 167.101 699.375 162.664C701.508 161.128 703.77 159.763 706.159 158.568C708.548 157.288 710.895 155.965 713.199 154.6C718.575 157.843 723.994 161.043 729.455 164.2C735.002 167.357 740.591 170.557 746.223 173.8C749.295 171.837 752.41 169.96 755.567 168.168C758.81 166.461 761.967 164.627 765.039 162.664C763.674 161.725 762.308 160.915 760.943 160.232C759.663 159.464 758.34 158.611 756.975 157.672C747.332 152.04 737.647 146.536 727.919 141.16C718.276 135.699 708.634 130.067 698.991 124.264C698.991 121.533 699.034 118.845 699.119 116.2C699.204 113.555 699.162 110.995 698.991 108.52C706.927 103.912 714.778 99.3467 722.543 94.824C730.394 90.216 738.287 85.6933 746.223 81.256ZM848.848 81.64C856.955 86.0773 864.848 90.6 872.528 95.208C880.293 99.7307 888.144 104.296 896.08 108.904C895.909 117.608 895.867 126.269 895.952 134.888C896.037 143.507 896.08 152.253 896.08 161.128V162.664C895.909 163.091 895.483 163.475 894.8 163.816C894.203 164.157 893.605 164.413 893.008 164.584C885.84 168.851 878.587 173.075 871.248 177.256C863.909 181.437 856.571 185.661 849.232 189.928C841.296 185.491 833.403 180.968 825.552 176.36C817.787 171.837 809.936 167.272 802 162.664C802.171 153.363 802.213 144.616 802.128 136.424C802.043 128.232 802 120.083 802 111.976V108.904C802.171 108.733 802.597 108.435 803.28 108.008C804.048 107.496 804.645 107.155 805.072 106.984C808.571 105.021 811.941 103.101 815.184 101.224C818.512 99.3467 821.925 97.4267 825.424 95.464C829.52 92.9893 833.488 90.6427 837.328 88.424C841.168 86.2053 845.008 83.944 848.848 81.64ZM815.824 116.968V154.984C821.456 158.227 827.003 161.427 832.464 164.584C838.011 167.741 843.472 170.941 848.848 174.184C853.883 171.283 858.789 168.467 863.568 165.736C868.347 163.005 873.168 160.189 878.032 157.288C878.203 157.203 878.501 157.075 878.928 156.904C879.355 156.648 879.781 156.392 880.208 156.136C880.72 155.88 881.147 155.624 881.488 155.368C881.915 155.027 882.171 154.771 882.256 154.6C882.427 154.173 882.469 153.491 882.384 152.552C882.299 151.613 882.256 150.76 882.256 149.992V116.968C876.88 113.725 871.376 110.483 865.744 107.24C860.112 103.997 854.608 100.84 849.232 97.768C843.6 100.84 838.011 103.997 832.464 107.24C827.003 110.483 821.456 113.725 815.824 116.968ZM863.44 127.72C863.44 130.451 863.397 133.139 863.312 135.784C863.227 138.429 863.269 141.117 863.44 143.848C861.136 145.384 858.747 146.835 856.272 148.2C853.883 149.565 851.536 150.931 849.232 152.296C846.757 150.931 844.325 149.608 841.936 148.328C839.632 146.963 837.328 145.597 835.024 144.232C834.853 141.16 834.768 138.387 834.768 135.912C834.768 133.352 834.853 130.621 835.024 127.72C837.157 126.355 839.461 124.947 841.936 123.496C844.496 122.045 846.928 120.637 849.232 119.272C851.536 120.637 853.883 122.003 856.272 123.368C858.747 124.733 861.136 126.184 863.44 127.72ZM848.848 119.656C846.715 121.021 844.496 122.387 842.192 123.752C839.973 125.032 837.712 126.355 835.408 127.72C837.541 129.085 839.803 130.451 842.192 131.816C844.581 133.096 846.928 134.419 849.232 135.784C851.365 134.419 853.584 133.096 855.888 131.816C858.277 130.451 860.539 129.085 862.672 127.72C860.368 126.355 858.107 125.032 855.888 123.752C853.669 122.387 851.323 121.021 848.848 119.656ZM835.024 143.848C837.157 145.043 839.248 146.28 841.296 147.56C843.344 148.755 845.349 149.821 847.312 150.76C847.739 150.931 848.037 151.187 848.208 151.528C848.464 151.784 848.677 151.912 848.848 151.912V136.168C846.715 134.632 844.453 133.224 842.064 131.944C839.675 130.664 837.328 129.256 835.024 127.72V143.848ZM849.232 136.168V151.912C851.536 150.547 853.883 149.224 856.272 147.944C858.661 146.579 860.923 145.213 863.056 143.848C863.056 141.117 863.099 138.429 863.184 135.784C863.269 133.139 863.227 130.451 863.056 127.72C860.752 129.256 858.448 130.664 856.144 131.944C853.84 133.224 851.536 134.632 849.232 136.168ZM953.973 81.64C959.605 84.712 965.152 87.8693 970.613 91.112C976.16 94.3547 981.621 97.5973 986.997 100.84C992.629 97.768 998.176 94.6107 1003.64 91.368C1009.18 88.1253 1014.65 84.8827 1020.02 81.64C1027.96 86.248 1035.81 90.8133 1043.57 95.336C1051.42 99.7733 1059.32 104.296 1067.25 108.904V139.24V163.048L1053.43 154.984V134.248V116.968C1050.7 115.261 1047.93 113.64 1045.11 112.104C1042.38 110.483 1039.65 108.904 1036.92 107.368C1034.02 105.832 1031.2 104.253 1028.47 102.632C1025.82 100.925 1023.14 99.304 1020.41 97.768C1014.77 101.011 1009.18 104.211 1003.64 107.368C998.176 110.44 992.629 113.512 986.997 116.584C981.621 113.512 976.16 110.44 970.613 107.368C965.152 104.211 959.733 101.011 954.357 97.768C948.725 101.011 943.136 104.211 937.589 107.368C932.128 110.525 926.709 113.725 921.333 116.968V154.984C919.029 156.349 916.64 157.672 914.165 158.952C911.776 160.232 909.429 161.469 907.125 162.664V82.024C909.6 83.2187 911.989 84.4987 914.293 85.864C916.682 87.144 919.029 88.552 921.333 90.088V100.84C926.965 97.768 932.469 94.6107 937.845 91.368C943.221 88.1253 948.597 84.8827 953.973 81.64ZM1170.07 106.472C1162.31 111.08 1154.54 115.645 1146.78 120.168C1139.01 124.605 1131.16 129.128 1123.22 133.736C1121.09 132.371 1118.87 131.048 1116.57 129.768C1114.35 128.403 1112.09 127.037 1109.78 125.672C1115.16 122.429 1120.58 119.229 1126.04 116.072C1131.59 112.915 1137.05 109.715 1142.42 106.472C1139.35 104.509 1136.19 102.675 1132.95 100.968C1129.79 99.176 1126.68 97.4267 1123.61 95.72C1117.98 98.792 1112.39 101.949 1106.84 105.192C1101.38 108.435 1095.83 111.677 1090.2 114.92V152.936C1095.83 156.179 1101.38 159.379 1106.84 162.536C1112.39 165.693 1117.85 168.893 1123.22 172.136C1128.86 168.893 1134.36 165.693 1139.74 162.536C1145.11 159.379 1150.62 156.179 1156.25 152.936L1170.07 161C1162.31 165.608 1154.54 170.131 1146.78 174.568C1139.01 179.005 1131.16 183.443 1123.22 187.88C1115.46 183.443 1107.69 178.963 1099.93 174.44C1092.16 169.917 1084.31 165.437 1076.38 161V106.856C1082.95 103.016 1089.69 99.1333 1096.6 95.208C1103.51 91.1973 1110.34 87.272 1117.08 83.432C1118.02 82.8347 1118.96 82.2373 1119.9 81.64C1120.92 80.9573 1121.9 80.4027 1122.84 79.976C1123.44 79.8053 1124.03 79.9333 1124.63 80.36C1125.31 80.7013 1126.12 81.0853 1127.06 81.512C1134.23 85.7787 1141.44 90.0027 1148.69 94.184C1156.03 98.28 1163.16 102.376 1170.07 106.472Z" fill="url(#paint1_linear_2050_31)"/>
<defs>
<linearGradient id="paint0_linear_2050_31" x1="0" y1="110.5" x2="223" y2="110.5" gradientUnits="userSpaceOnUse">
<stop stop-color="#8C00FF"/>
<stop offset="1" stop-color="#006699"/>
</linearGradient>
<linearGradient id="paint1_linear_2050_31" x1="291" y1="143" x2="1225" y2="143" gradientUnits="userSpaceOnUse">
<stop stop-color="#8C00FF"/>
<stop offset="1" stop-color="#006699"/>
</linearGradient>
</defs>
</svg>
