<svg width="223" height="221" viewBox="0 0 223 221" fill="none"
    xmlns="http://www.w3.org/2000/svg">
    <path d="M0.00102881 157.306C-0.0852084 180.737 5.25066 202.804 15.7641 221C13.3456 205.679 15.4083 192.386 20.7121 181.136C16.9294 149.714 22.3647 111.472 37.1989 84.2328C71.7852 20.7236 145.217 4.38026 183.739 46.8423C197.421 48.0223 210.445 51.4343 222.173 57.093C183.829 -28.2288 70.9323 -14.6511 21.5443 76.0365C7.16201 102.445 0.099047 130.752 0.00102881 157.306ZM29.8155 153.743C30.0078 175.014 36.2989 197.095 50.9177 218.122C31.4093 157.958 125.902 114.297 160.451 148.933C155.548 108.579 113.414 99.2984 81.465 112.418C115.741 87.5692 155.507 85.5712 175.037 95.122C166.781 80.0926 130.227 61.0071 96.6013 70.1371C117.887 54.082 143.388 48.6014 174.487 53.39C122.159 -0.67577 29.0611 70.2974 29.8155 153.743ZM127.894 100.744C152.032 104.846 171.817 125.244 172.278 151.84C179.115 156.385 185.042 161.865 189.7 168.287C192.801 136.216 173.551 110.043 147.219 100.051C140.908 99.7342 134.434 99.9561 127.894 100.744ZM136.499 62.6586C161.539 63.9063 183.336 79.0259 193.708 102.544C204.669 106.471 214.607 112.026 223 119.142C218.78 96.8515 207.284 78.5497 191.52 66.2394C174.977 59.9856 155.833 58.8004 136.499 62.6586Z" fill="url(#paint0_linear_2050_24)"/>
    <defs>
        <linearGradient id="paint0_linear_2050_24" x1="0" y1="110.5" x2="223" y2="110.5" gradientUnits="userSpaceOnUse">
            <stop stop-color="#8C00FF"/>
            <stop offset="1" stop-color="#006699"/>
        </linearGradient>
    </defs>
</svg>
