<svg width="176" height="178" viewBox="0 0 176 178" fill="none"
    xmlns="http://www.w3.org/2000/svg">
    <path d="M94.6401 177.453C92.4884 177.587 90.4265 177.842 88.3879 177.717C83.7018 177.43 79.0177 177.044 74.3499 176.539C68.2738 175.882 62.4432 174.138 56.758 171.981C51.546 170.004 46.5646 167.494 41.8993 164.425C38.9029 162.454 35.9526 160.4 33.0986 158.23C31.2895 156.854 29.6915 155.2 28.0056 153.664C22.0843 148.267 17.1504 142.034 12.9983 135.227C10.8095 131.639 9.12774 127.736 7.291 123.94C4.87161 118.939 3.4475 113.597 2.1787 108.221C1.59356 105.742 1.14363 103.215 0.867928 100.683C0.498604 97.2926 0.285533 93.8799 0.141805 90.4708C0.0277938 87.7666 -0.124526 85.0266 0.173509 82.3508C0.674678 77.8511 1.38455 73.3634 2.25007 68.9181C3.80912 60.9107 6.80787 53.3899 10.6847 46.2479C13.0748 41.8448 15.6897 37.5443 19.0263 33.7562C21.7268 30.6904 24.2845 27.4649 27.248 24.6739C30.674 21.4474 34.301 18.3683 38.1617 15.6876C42.1561 12.914 46.4195 10.4622 50.7747 8.28938C56.8619 5.25243 63.2998 3.05871 70.0324 1.89414C73.3953 1.31246 76.7808 0.821122 80.175 0.474281C83.148 0.17049 86.1529 -0.0680072 89.1336 0.0176124C92.5656 0.116195 95.9873 0.592942 99.4118 0.922335C105.316 1.4902 110.999 3.01688 116.564 4.99356C124.585 7.84264 131.974 11.8624 138.85 16.899C143.768 20.5008 148.217 24.6003 152.317 29.0607C154.832 31.7958 157.008 34.851 159.238 37.836C162.545 42.2636 165.102 47.1384 167.387 52.1509C169.922 57.7131 171.938 63.4694 173.094 69.4778C173.818 73.2432 174.309 77.0582 174.773 80.867C175.066 83.2809 175.32 85.7319 175.23 88.1528C175.075 92.3409 174.697 96.5239 174.306 100.699C173.873 105.321 172.77 109.817 171.451 114.258C169.931 119.376 167.98 124.314 165.57 129.092C162.853 134.482 159.72 139.592 155.848 144.213C153.174 147.404 150.509 150.65 147.47 153.473C144.002 156.696 140.298 159.737 136.374 162.377C132.148 165.221 127.667 167.754 123.079 169.974C117.696 172.578 112.018 174.517 106.096 175.601C102.979 176.171 99.8589 176.728 96.7353 177.263C96.0816 177.374 95.406 177.358 94.6401 177.453ZM49.429 21.704C48.2929 22.4228 47.1043 23.0714 46.0303 23.8734C42.7713 26.3072 39.3056 28.5386 36.3883 31.3367C32.7712 34.8063 29.3702 38.5716 26.3298 42.5557C21.5328 48.8414 17.9293 55.8309 15.3834 63.356C13.848 67.894 12.5957 72.4817 12.0676 77.2502C11.737 80.2352 11.2308 83.2183 11.1641 86.2103C11.0905 89.5107 11.3274 92.8295 11.6205 96.1233C11.8606 98.8212 12.3199 101.505 12.7904 104.176C13.9086 110.523 15.9839 116.592 18.8207 122.342C20.7529 126.259 23.0497 130.03 25.5153 133.64C27.6593 136.778 30.0934 139.767 32.7218 142.514C35.3729 145.283 38.4033 147.694 41.2998 150.224C44.6305 153.134 48.4043 155.382 52.2938 157.449C57.1842 160.048 62.2591 162.178 67.6064 163.663C72.4333 165.004 77.3539 165.814 82.327 166.245C84.7783 166.457 87.2675 166.374 89.7318 166.258C92.6632 166.12 95.5891 165.836 98.512 165.558C102.676 165.162 106.667 163.979 110.63 162.722C115.724 161.106 120.576 158.94 125.202 156.247C130.012 153.449 134.489 150.194 138.57 146.434C143.654 141.751 148.091 136.508 151.795 130.644C155.07 125.457 157.709 119.98 159.746 114.204C161.196 110.094 162.287 105.891 162.847 101.565C163.282 98.2067 163.789 94.8478 163.998 91.4726C164.154 88.9582 163.95 86.4133 163.786 83.8897C163.638 81.5952 163.494 79.2789 163.055 77.0293C162.245 72.8805 161.437 68.7094 160.232 64.6653C158.722 59.5915 156.452 54.8212 153.827 50.1873C150.884 44.9917 147.347 40.2671 143.379 35.8682C139.642 31.7252 135.394 28.1208 130.817 24.8996C126.836 22.0972 122.654 19.6223 118.205 17.7086C113.212 15.5608 108.106 13.6038 102.676 12.7941C98.6807 12.1983 94.6806 11.5301 90.6578 11.2496C86.1367 10.9343 81.5944 11.2294 77.1055 11.9312C74.4763 12.3422 71.8318 12.7642 69.2675 13.4542C66.0943 14.3081 62.9112 15.2406 59.8898 16.5129C56.3635 17.9978 53.0072 19.8862 49.429 21.704Z" fill="url(#paint0_linear_2053_89)"/>
    <path d="M89.5953 81.262C87.927 83.0374 86.0355 84.5075 83.9209 85.7396C81.3873 87.2158 80.2992 89.7062 79.6983 92.4398C79.2177 94.6258 78.678 96.7924 77.2969 98.6083C75.5697 100.879 73.402 102.47 70.4431 102.723C69.7847 102.779 69.1142 102.819 68.4806 102.985C68.1938 103.061 67.8313 103.391 67.7632 103.669C67.2425 105.798 66.7007 107.927 66.3396 110.086C66.101 111.513 66.1267 112.986 66.0759 114.441C65.9742 117.352 66.783 120.113 67.4459 122.91C68.569 127.647 71.0216 131.696 73.7786 135.602C74.1845 136.177 74.6974 136.676 75.061 137.295C66.0739 133.109 60.3888 125.954 56.812 116.954C53.2262 107.932 53.1213 98.7034 55.6517 89.3551C55.5201 89.3269 55.3885 89.2986 55.2569 89.2704C54.4009 90.6475 53.58 92.0479 52.6809 93.3963C51.338 95.4103 49.7092 97.1254 47.1932 97.5593C46.1134 97.7455 44.9842 97.6285 43.8829 97.7168C43.5447 97.7439 43.0131 97.9203 42.9302 98.1554C42.3846 99.7019 41.7668 101.254 41.4912 102.859C40.7543 107.15 41.8513 111.165 43.8771 114.907C45.3393 117.607 47.1558 120.088 49.626 122.008C49.8683 122.196 50.0576 122.452 50.5149 122.933C47.9007 122.185 45.7406 121.278 43.7544 119.953C37.97 116.095 34.3539 110.687 32.6901 104.019C31.2474 98.2366 31.7871 92.5529 34.323 87.119C34.6945 86.3229 35.3237 85.6499 35.7312 84.8666C35.9868 84.3751 36.1866 83.7818 36.1778 83.238C36.1379 80.7566 36.6753 78.5477 38.2826 76.5265C39.7061 74.7363 41.599 73.982 43.6153 73.3332C46.4188 72.4311 49.3122 71.7549 52.0215 70.6309C54.0211 69.8012 55.7302 68.2965 57.6787 67.3097C58.9825 66.6494 60.4498 66.172 61.8951 65.9579C65.7213 65.3911 69.6201 65.2273 73.3215 63.9933C76.7312 62.8566 79.6468 60.8665 82.4082 58.5846C84.5838 56.7867 86.898 55.1517 89.1956 53.5072C92.8235 50.9106 96.034 47.8887 98.7504 44.3495C101.063 41.3366 103.515 38.415 105.619 35.2622C108.863 30.4032 111.713 25.3 114.059 19.9333C114.116 19.8027 114.178 19.6743 114.266 19.4824C124.638 23.5835 133.485 29.7843 141.098 37.8726C138.079 39.7402 135.068 41.5798 132.081 43.4567C128.175 45.9113 124.704 48.9078 121.633 52.3291C118.959 55.3081 116.875 58.7061 116.111 62.6875C115.651 65.0843 115.858 67.5967 117.242 69.6893C118.927 72.2357 120.701 74.7702 122.765 77.0069C125.676 80.1621 129.338 82.4042 133.175 84.3037C136.387 85.8941 138.624 88.3172 139.766 91.7067C140.695 94.463 140.571 97.1602 139.237 99.8059C138.942 100.391 138.904 101.187 138.976 101.861C139.7 108.685 137.886 114.814 133.886 120.306C130.997 124.273 127.257 127.249 122.787 129.303C120.108 130.533 117.335 131.411 114.382 131.628C112.475 131.768 110.564 131.857 108.655 131.969C108.631 131.846 108.606 131.723 108.581 131.601C109.743 131.133 110.94 130.739 112.059 130.186C115.302 128.582 118.312 126.702 120.669 123.822C122.742 121.288 124.278 118.539 124.952 115.368C125.276 113.849 125.253 112.25 125.319 110.685C125.356 109.805 124.622 109.924 124.058 109.889C120.711 109.684 118.321 107.985 117.041 104.967C115.65 101.688 116.106 98.4748 118.093 95.5128C118.738 94.5506 119.464 93.6422 120.26 92.6001C120.399 92.411 120.43 92.3309 120.462 92.2507C120.327 92.3088 120.192 92.3669 120.058 92.4249C118.879 93.225 117.7 94.025 116.444 94.8777C116.242 94.3617 116.009 93.6631 115.702 92.9985C114.805 91.0585 113.325 89.7221 111.457 88.6919C108.987 87.3301 106.601 85.8177 104.084 84.314C105.186 86.5428 106.774 88.1858 108.852 89.3149C109.579 89.7096 109.799 90.185 109.815 90.9513C109.846 92.4423 109.963 93.9313 110.04 95.4214C110.122 97.0325 110.368 98.6574 110.241 100.252C110.006 103.219 109.293 106.131 107.855 108.743C104.888 114.134 100.593 117.921 94.2684 119.045C94.7886 118.617 95.3374 118.22 95.8245 117.757C99.1027 114.644 101.227 110.97 101.719 106.368C101.939 104.309 101.892 102.372 101.251 100.4C101.04 99.7526 100.797 99.6004 100.207 99.6062C95.7632 99.6505 92.5685 95.619 92.9118 91.144C94.4406 90.968 95.9658 90.7925 97.4542 90.6212C95.6471 90.1079 93.871 89.6318 92.1157 89.0885C91.5413 88.9107 91.0407 88.5048 90.4724 88.2955C88.8727 87.7065 87.2554 87.1655 85.8625 86.6812C87.0058 85.1908 88.367 83.4162 89.8049 81.5323C89.8911 81.2941 89.9008 81.1652 89.9104 81.0362C89.8054 81.1114 89.7003 81.1867 89.5953 81.262ZM63.6722 87.7645C64.2952 86.723 64.9182 85.6814 65.5386 84.6442C64.1846 83.0862 61.5776 83.3642 60.7516 84.8967C57.3786 91.1541 56.3568 97.776 56.9424 104.799C57.2254 108.192 58.0518 111.401 59.1567 114.572C59.5199 115.614 60.0474 116.599 60.6149 117.868C60.7474 117.413 60.822 117.297 60.8043 117.197C60.3337 114.543 59.8454 111.892 59.3772 109.237C58.7748 105.822 59.1003 102.405 59.6933 99.0491C60.3819 95.1526 61.6093 91.3919 63.6722 87.7645ZM132.979 110.681C132.377 112.574 131.903 114.522 131.142 116.35C129.986 119.125 128.268 121.566 126.114 123.728C126.431 123.696 126.747 123.634 126.932 123.443C128.397 121.934 129.944 120.488 131.263 118.857C135.819 113.224 136.903 106.673 136.072 99.673C135.93 98.4778 135.089 97.9902 133.928 98.3036C132.328 98.7358 132.324 98.7367 132.75 100.39C133.612 103.732 133.532 107.094 132.979 110.681ZM61.9422 73.3336C59.115 74.8247 57.2935 77.1294 56.6645 80.2505C56.3364 81.8788 56.3176 83.5695 56.159 85.232C56.2694 85.237 56.3798 85.2419 56.4902 85.2469C56.8969 83.7588 57.1724 82.2187 57.7372 80.7934C58.9732 77.6746 61.0349 75.2676 64.3413 74.2233C66.6421 73.4967 69.0063 72.9719 71.3102 72.2543C74.7962 71.1685 77.9742 69.4637 80.7572 67.0927C81.8661 66.1479 82.8366 65.0406 83.87 64.0073C83.5537 63.8061 83.4227 63.7872 83.3453 63.8428C81.5888 65.105 79.9166 66.5061 78.0682 67.6135C75.2997 69.272 72.335 70.4943 69.147 71.2122C66.7692 71.7477 64.4636 72.6035 61.9422 73.3336ZM34.5288 99.8908C34.7678 101.179 34.9419 102.483 35.2637 103.75C35.5921 105.043 36.0656 106.299 36.4755 107.571C36.6346 107.556 36.7937 107.542 36.9528 107.527C34.9 99.6971 36.2174 92.6213 41.5889 86.2966C41.2438 86.0151 40.8917 85.7569 40.5731 85.4624C39.5847 84.549 39.1802 84.5436 38.394 85.6123C37.9195 86.2573 37.5515 86.9828 37.1573 87.6843C35.0638 91.4098 34.3693 95.4444 34.5288 99.8908Z" fill="url(#paint1_linear_2053_89)"/>
    <defs>
        <linearGradient id="paint0_linear_2053_89" x1="0" y1="88.8753" x2="175.249" y2="88.8753" gradientUnits="userSpaceOnUse">
            <stop stop-color="#8C00FF"/>
            <stop offset="1" stop-color="#008FD6"/>
        </linearGradient>
        <linearGradient id="paint1_linear_2053_89" x1="31.9033" y1="78.389" x2="141.098" y2="78.389" gradientUnits="userSpaceOnUse">
            <stop stop-color="#8C00FF"/>
            <stop offset="1" stop-color="#008FD6"/>
        </linearGradient>
    </defs>
</svg>
